<svg width="168" height="85" viewBox="0 0 168 85" fill="none" xmlns="http://www.w3.org/2000/svg">
<line y1="84.5" x2="168" y2="84.5" stroke="#E0E2EB" stroke-dasharray="2 2"/>
<line y1="63.5" x2="168" y2="63.5" stroke="#E0E2EB" stroke-dasharray="2 2"/>
<line y1="42.5" x2="168" y2="42.5" stroke="#E0E2EB" stroke-dasharray="2 2"/>
<line y1="21.5" x2="168" y2="21.5" stroke="#E0E2EB" stroke-dasharray="2 2"/>
<line y1="0.5" x2="168" y2="0.5" stroke="#E0E2EB" stroke-dasharray="2 2"/>
<path d="M166 85.4875C166.276 85.4875 166.5 85.2637 166.5 84.9875C166.5 84.7114 166.276 84.4875 166 84.4875V85.4875ZM0.517994 1.13293C12.5805 44.8723 49.062 65.9508 84.8997 76.095C120.74 86.2401 156.06 85.4875 166 85.4875V84.4875C156.046 84.4875 120.861 85.2348 85.1721 75.1328C49.4805 65.03 13.4089 44.1148 1.48201 0.867072L0.517994 1.13293Z" fill="#FF0420"/>
</svg>
