<svg width="168" height="85" viewBox="0 0 168 85" fill="none" xmlns="http://www.w3.org/2000/svg">
<line y1="84.5" x2="168" y2="84.5" stroke="#E0E2EB" stroke-dasharray="2 2"/>
<line y1="63.5" x2="168" y2="63.5" stroke="#E0E2EB" stroke-dasharray="2 2"/>
<line y1="42.5" x2="168" y2="42.5" stroke="#E0E2EB" stroke-dasharray="2 2"/>
<line y1="21.5" x2="168" y2="21.5" stroke="#E0E2EB" stroke-dasharray="2 2"/>
<line y1="0.5" x2="168" y2="0.5" stroke="#E0E2EB" stroke-dasharray="2 2"/>
<path d="M168 85.4875C168.276 85.4875 168.5 85.2637 168.5 84.9875C168.5 84.7114 168.276 84.4875 168 84.4875V85.4875ZM0.501069 1.03267C1.87532 22.0181 3.37685 37.8302 7.28282 49.7114C11.2021 61.6332 17.5508 69.6236 28.5957 74.9396C39.5968 80.2345 55.2292 82.8616 77.6818 84.1744C100.145 85.4877 129.506 85.4875 168 85.4875V84.4875C129.494 84.4875 100.167 84.4873 77.7401 83.1761C55.302 81.8642 39.8407 79.2421 29.0293 74.0385C18.2617 68.8561 12.0791 61.0988 8.2328 49.3991C4.37315 37.6588 2.87468 21.9757 1.49893 0.967327L0.501069 1.03267Z" fill="#FF0420"/>
</svg>
