<svg width="64" height="64" viewBox="0 0 64 64" fill="none" xmlns="http://www.w3.org/2000/svg">
<g clip-path="url(#clip0_8940_152309)">
<path d="M0 6.67826C0 2.98996 2.98996 0 6.67826 0H57.3217C61.01 0 64 2.98996 64 6.67826V57.3217C64 61.01 61.01 64 57.3217 64H6.67826C2.98996 64 0 61.01 0 57.3217V6.67826Z" fill="#FFE0CC"/>
<circle opacity="0.24" cx="7.6636" cy="56.4357" r="14.9333" transform="rotate(105 7.6636 56.4357)" fill="#FAFBFF"/>
<path opacity="0.51" d="M12.9752 46.5428L13.134 46.605C12.8503 47.3358 13.2142 48.1551 13.945 48.4387L13.8828 48.5976C13.152 48.3139 12.3327 48.6778 12.049 49.4086L11.8902 49.3464C12.1739 48.6156 11.81 47.7963 11.0792 47.5126L11.1414 47.3538C11.8722 47.6375 12.6915 47.2736 12.9752 46.5428Z" fill="white"/>
<circle opacity="0.24" cx="58.3668" cy="3.21183" r="11.2" transform="rotate(105 58.3668 3.21183)" fill="#FAFBFF"/>
<path fill-rule="evenodd" clip-rule="evenodd" d="M51.2886 58.1839C51.8126 57.8814 52.7811 57.0014 52.9408 56.4041C53.1009 55.8065 52.7024 54.5606 52.3999 54.0366C52.7024 54.5606 53.5821 55.5287 54.1797 55.6888C54.7769 55.8492 56.0233 55.4504 56.5472 55.1479C56.0233 55.4504 55.0547 56.3304 54.8947 56.9273C54.7346 57.5249 55.1334 58.7713 55.4359 59.2952C55.1334 58.7713 54.2534 57.8027 53.6558 57.6425C53.0589 57.4826 51.8126 57.8814 51.2886 58.1839Z" fill="white"/>
<path fill-rule="evenodd" clip-rule="evenodd" d="M50.4518 28.1907L49.1897 26.5973L47.597 28.0534L48.6756 28.9701L50.4518 28.1907Z" fill="white" stroke="white" stroke-width="0.218962" stroke-miterlimit="1.5" stroke-linecap="round" stroke-linejoin="round"/>
<path opacity="0.8" d="M23.2886 5.30069C23.1763 5.71981 23.4251 6.15062 23.8442 6.26292C24.2633 6.37523 24.6941 6.1265 24.8064 5.70738C24.9187 5.28825 24.67 4.85745 24.2509 4.74514C23.8318 4.63284 23.4009 4.88156 23.2886 5.30069Z" fill="white"/>
<path d="M38.7009 6.8027C38.5605 6.76508 38.4772 6.62077 38.5148 6.48037C38.5525 6.33998 38.6968 6.25666 38.8372 6.29428C38.9776 6.3319 39.0609 6.47621 39.0233 6.6166C38.9856 6.757 38.8413 6.84032 38.7009 6.8027Z" fill="white" stroke="white" stroke-width="0.0644782"/>
<path opacity="0.8" fill-rule="evenodd" clip-rule="evenodd" d="M15.8862 52.8732C15.6646 52.9881 15.2512 53.3313 15.1731 53.5747C15.0951 53.818 15.2372 54.3378 15.352 54.5592C15.2372 54.3378 14.8923 53.9231 14.6506 53.8456C14.4067 53.7691 13.8879 53.9092 13.6664 54.024C13.8879 53.9092 14.3014 53.5659 14.3794 53.3226C14.4554 53.0803 14.3153 52.5595 14.2007 52.3383C14.3153 52.5595 14.6582 52.9752 14.902 53.0517C15.1458 53.1282 15.6646 52.9881 15.8862 52.8732Z" fill="white"/>
<path d="M54.9767 31.0715C55.0664 31.0838 55.1615 31.0875 55.2503 31.0713C55.3392 31.0551 55.4269 31.0181 55.5066 30.9748C55.4943 31.0647 55.4906 31.1598 55.5068 31.2487C55.523 31.3375 55.56 31.4251 55.6032 31.5048C55.5134 31.4925 55.4184 31.4888 55.3295 31.505L54.9767 31.0715Z" fill="white" stroke="white" stroke-width="0.465876"/>
<path fill-rule="evenodd" clip-rule="evenodd" d="M18.4084 -3.18163C18.4084 2.58277 18.4084 8.34966 18.4084 14.1141C12.2723 13.282 6.13616 12.4475 0 11.6154C0 5.61113 0 -0.393134 0 -6.3999C6.13616 -5.32798 12.2723 -4.25356 18.4084 -3.18163Z" stroke="#FFFDFA" stroke-width="0.895689" stroke-miterlimit="3"/>
<path fill-rule="evenodd" clip-rule="evenodd" d="M47.0045 48.5496C46.7603 49.4219 46.7666 52.1011 47.3853 53.1971C48.0004 54.295 50.2864 55.6921 51.1587 55.9364C50.2864 55.6921 47.6074 55.6984 46.5124 56.3143C45.4138 56.9322 44.017 59.2184 43.7728 60.0907C44.017 59.2184 44.0105 56.5391 43.3926 55.4404C42.7767 54.3453 40.4907 52.9481 39.6185 52.7038C40.4907 52.9481 43.1697 52.9418 44.2655 52.3232C45.3633 51.708 46.7603 49.4219 47.0045 48.5496Z" fill="#FFFDFA"/>
<path fill-rule="evenodd" clip-rule="evenodd" d="M48.2257 3.15944L52.8788 -9.06672L60.7999 -0.450749L48.2257 3.15944Z" fill="#FFFDFA"/>
<path fill-rule="evenodd" clip-rule="evenodd" d="M2.26348 16.3729L13.5072 9.59997L19.394 22.891L6.86206 26.7554L2.26348 16.3729Z" fill="#FFFDFA"/>
<path fill-rule="evenodd" clip-rule="evenodd" d="M21.7444 58.2069L30.2596 55.8044L31.4665 46.407L25.8751 41.7122L18.5577 46.5265L17.6338 52.4802L21.7444 58.2069Z" fill="#FFAF4D"/>
<path d="M29.1089 55.1985L23.7276 50.904L18.6595 52.2328" stroke="#FFF9EB" stroke-width="0.895689" stroke-miterlimit="3" stroke-linecap="round" stroke-linejoin="round"/>
<path d="M25.8361 42.5846L23.7285 50.9036" stroke="#FFF9EB" stroke-width="0.895689" stroke-miterlimit="3" stroke-linejoin="round"/>
<path fill-rule="evenodd" clip-rule="evenodd" d="M17.3159 41.803L19.6921 36.8634L15.8239 32.4498L11.3514 33.1215L10.5862 38.4937L12.9715 41.3639L17.3159 41.803Z" fill="#FFAF4D"/>
<path d="M18.7658 37.1314L14.7416 37.9156L13.8087 40.673" stroke="#FFF9EB" stroke-width="0.895689" stroke-miterlimit="3" stroke-linecap="round" stroke-linejoin="round"/>
<path d="M11.7439 33.5253L14.7422 37.915" stroke="#FFF9EB" stroke-width="0.895689" stroke-miterlimit="3" stroke-linejoin="round"/>
<path d="M43.5982 7.46655L24.5332 9.05498V34.7818L43.5982 36.1812V7.46655Z" fill="#FFFDFA"/>
<path d="M51.7154 17.9155H32.6504V25.5114H51.7154V17.9155Z" fill="#FFAF4D"/>
<path d="M47.1822 28.4258H28.1172V31.9009H47.1822V28.4258Z" fill="#FFAF4D"/>
<path d="M52.7447 37.9038H33.6797V41.379H52.7447V37.9038Z" fill="#FFAF4D"/>
<g style="mix-blend-mode:hue">
<rect width="64" height="64" fill="#FFE6C7"/>
</g>
</g>
<defs>
<clipPath id="clip0_8940_152309">
<path d="M0 6.67826C0 2.98996 2.98996 0 6.67826 0H57.3217C61.01 0 64 2.98996 64 6.67826V57.3217C64 61.01 61.01 64 57.3217 64H6.67826C2.98996 64 0 61.01 0 57.3217V6.67826Z" fill="white"/>
</clipPath>
</defs>
</svg>

