<svg width="64" height="64" viewBox="0 0 64 64" fill="none" xmlns="http://www.w3.org/2000/svg">
<g clip-path="url(#clip0_8940_152214)">
<path d="M0 6.67826C0 2.98996 2.98996 0 6.67826 0H57.3217C61.01 0 64 2.98996 64 6.67826V57.3217C64 61.01 61.01 64 57.3217 64H6.67826C2.98996 64 0 61.01 0 57.3217V6.67826Z" fill="#FFD1D5"/>
<g clip-path="url(#clip1_8940_152214)">
<path d="M0 6.67826C0 2.98996 2.98996 0 6.67826 0H57.3217C61.01 0 64 2.98996 64 6.67826V57.3217C64 61.01 61.01 64 57.3217 64H6.67826C2.98996 64 0 61.01 0 57.3217V6.67826Z" fill="#E8D6FF"/>
<path fill-rule="evenodd" clip-rule="evenodd" d="M30.6465 15.8503L31.6204 15.313L32.5943 15.8503V39.3434H30.6465V15.8503Z" fill="#D7FFFC" stroke="#68DFDC" stroke-width="3.15192" stroke-miterlimit="2" stroke-linejoin="round"/>
<path d="M31.623 18.5877C33.2442 18.5877 34.5584 17.2735 34.5584 15.6523C34.5584 14.031 33.2442 12.7168 31.623 12.7168C30.0017 12.7168 28.6875 14.031 28.6875 15.6523C28.6875 17.2735 30.0017 18.5877 31.623 18.5877Z" stroke="#68DFDC" stroke-width="0.697924" stroke-miterlimit="1.5" stroke-linecap="round" stroke-linejoin="round"/>
<path d="M31.6218 17.694C32.7494 17.694 33.6635 16.7799 33.6635 15.6523C33.6635 14.5247 32.7494 13.6106 31.6218 13.6106C30.4942 13.6106 29.5801 14.5247 29.5801 15.6523C29.5801 16.7799 30.4942 17.694 31.6218 17.694Z" fill="#68DFDC" stroke="white" stroke-width="0.707026" stroke-miterlimit="1.5" stroke-linecap="round" stroke-linejoin="round"/>
<path fill-rule="evenodd" clip-rule="evenodd" d="M38.2345 32.7431H59.207C58.1418 35.2166 53.7744 36.9824 48.7218 36.9824C43.6693 36.9824 39.3018 35.2166 38.2345 32.7431Z" fill="url(#paint0_linear_8940_152214)"/>
<path fill-rule="evenodd" clip-rule="evenodd" d="M4.8009 43.7529H25.7734C24.7082 46.2264 20.3408 47.9922 15.2882 47.9922C10.2357 47.9922 5.86822 46.2264 4.8009 43.7529Z" fill="url(#paint1_linear_8940_152214)"/>
<path d="M15.4966 28.8174C16.952 28.8174 18.1319 27.6376 18.1319 26.1821C18.1319 24.7267 16.952 23.5469 15.4966 23.5469C14.0412 23.5469 12.8613 24.7267 12.8613 26.1821C12.8613 27.6376 14.0412 28.8174 15.4966 28.8174Z" fill="white" stroke="white" stroke-width="0.274926" stroke-miterlimit="1.5" stroke-linecap="round" stroke-linejoin="round"/>
<path d="M15.4974 27.3927C16.1658 27.3927 16.7076 26.8508 16.7076 26.1824C16.7076 25.514 16.1658 24.9722 15.4974 24.9722C14.829 24.9722 14.2871 25.514 14.2871 26.1824C14.2871 26.8508 14.829 27.3927 15.4974 27.3927Z" fill="#A3F5F1" stroke="white" stroke-width="0.707227" stroke-miterlimit="1.5" stroke-linecap="round" stroke-linejoin="round"/>
<path d="M15.497 26.6756C15.7693 26.6756 15.99 26.4548 15.99 26.1825C15.99 25.9102 15.7693 25.6895 15.497 25.6895C15.2247 25.6895 15.0039 25.9102 15.0039 26.1825C15.0039 26.4548 15.2247 26.6756 15.497 26.6756Z" fill="#B6F9E8"/>
<path d="M48.7984 19.7333C50.1239 19.7333 51.1984 18.6588 51.1984 17.3334C51.1984 16.0079 50.1239 14.9333 48.7984 14.9333C47.473 14.9333 46.3984 16.0079 46.3984 17.3334C46.3984 18.6588 47.473 19.7333 48.7984 19.7333Z" fill="#A3F5F1" stroke="white" stroke-width="0.468712" stroke-miterlimit="1.5" stroke-linecap="round" stroke-linejoin="round"/>
<path d="M48.7428 18.1919C49.2351 18.1919 49.6341 17.7566 49.6341 17.2196C49.6341 16.6826 49.2351 16.2473 48.7428 16.2473C48.2506 16.2473 47.8516 16.6826 47.8516 17.2196C47.8516 17.7566 48.2506 18.1919 48.7428 18.1919Z" stroke="white" stroke-width="0.469621" stroke-miterlimit="1.5" stroke-linecap="round" stroke-linejoin="round"/>
<path d="M31.6214 15.6516C26.8152 25.3318 15.6648 26.0774 15.4668 26.1823" stroke="#1FC1BF" stroke-width="0.697924" stroke-miterlimit="1.5" stroke-linecap="round" stroke-linejoin="round"/>
<path fill-rule="evenodd" clip-rule="evenodd" d="M8.26521 45.0973C8.24484 45.1965 8.24662 45.4147 8.30223 45.4999C8.3581 45.5852 8.55499 45.6703 8.6526 45.6891C8.55499 45.6703 8.33941 45.6762 8.2541 45.7343C8.16905 45.7925 8.08122 45.9934 8.06085 46.0926C8.08122 45.9934 8.07945 45.7753 8.02358 45.69C7.96772 45.6048 7.77083 45.5196 7.67321 45.5008C7.77083 45.5196 7.98641 45.5137 8.07171 45.4556C8.15701 45.3975 8.24484 45.1965 8.26521 45.0973Z" stroke="white" stroke-width="0.496815" stroke-miterlimit="1.5" stroke-linejoin="round"/>
<path fill-rule="evenodd" clip-rule="evenodd" d="M36.1487 28.4958C36.1834 28.6394 36.3416 28.9412 36.5012 29.0425C36.6607 29.1438 36.9952 29.1551 37.1362 29.123C36.9952 29.1551 36.7006 29.3093 36.6039 29.4688C36.5073 29.6283 36.5034 29.967 36.538 30.1105C36.5034 29.967 36.3447 29.6652 36.1852 29.5639C36.0257 29.4627 35.6912 29.4514 35.5501 29.4834C35.6912 29.4514 35.9858 29.2971 36.0824 29.1376C36.1791 28.9781 36.1834 28.6394 36.1487 28.4958Z" fill="white"/>
<path fill-rule="evenodd" clip-rule="evenodd" d="M28.0859 27.0856C28.0605 27.1887 28.1364 27.5557 28.3219 27.8648C28.5074 28.174 28.7926 28.409 28.8939 28.4325C28.7926 28.409 28.4288 28.4939 28.1197 28.6884C27.8105 28.8831 27.5724 29.1773 27.547 29.2805C27.5724 29.1773 27.4965 28.8104 27.311 28.5012C27.1255 28.1921 26.8398 27.9569 26.7384 27.9334C26.8398 27.9569 27.204 27.8722 27.5132 27.6776C27.8224 27.483 28.0605 27.1887 28.0859 27.0856Z" fill="white"/>
<path fill-rule="evenodd" clip-rule="evenodd" d="M12.1828 10.6155C12.1828 11.1224 12.4155 12.1933 12.7808 12.5595C13.1474 12.9259 14.2186 13.1584 14.7256 13.1584C14.2186 13.1584 13.1474 13.391 12.7808 13.7573C12.4155 14.1237 12.1828 15.1945 12.1828 15.7014C12.1828 15.1945 11.9501 14.1237 11.5835 13.7573C11.2169 13.391 10.1457 13.1584 9.63867 13.1584C10.1457 13.1584 11.2169 12.9259 11.5835 12.5595C11.9501 12.1933 12.1828 11.1224 12.1828 10.6155Z" fill="white"/>
<path fill-rule="evenodd" clip-rule="evenodd" d="M38.4022 0C38.4022 0.744147 38.7438 2.31641 39.28 2.85406C39.8181 3.39189 41.3904 3.73333 42.1346 3.73333C41.3904 3.73333 39.8181 4.07477 39.28 4.6126C38.7438 5.15043 38.4022 6.72252 38.4022 7.46667C38.4022 6.72252 38.0607 5.15043 37.5226 4.6126C36.9845 4.07477 35.4122 3.73333 34.668 3.73333C35.4122 3.73333 36.9845 3.39189 37.5226 2.85406C38.0607 2.31641 38.4022 0.744147 38.4022 0Z" fill="white"/>
<path fill-rule="evenodd" clip-rule="evenodd" d="M16.0019 53.8667C16.0019 54.6108 16.3434 56.1831 16.8796 56.7208C17.4177 57.2586 18.9901 57.6 19.7342 57.6C18.9901 57.6 17.4177 57.9415 16.8796 58.4793C16.3434 59.0171 16.0019 60.5892 16.0019 61.3334C16.0019 60.5892 15.6603 59.0171 15.1222 58.4793C14.5841 57.9415 13.0118 57.6 12.2676 57.6C13.0118 57.6 14.5841 57.2586 15.1222 56.7208C15.6603 56.1831 16.0019 54.6108 16.0019 53.8667Z" fill="white"/>
<path fill-rule="evenodd" clip-rule="evenodd" d="M47.3664 48.1394C47.3664 48.6463 47.5991 49.7172 47.9644 50.0834C48.331 50.4498 49.4022 50.6823 49.9092 50.6823C49.4022 50.6823 48.331 50.9149 47.9644 51.2813C47.5991 51.6476 47.3664 52.7184 47.3664 53.2253C47.3664 52.7184 47.1337 51.6476 46.7671 51.2813C46.4005 50.9149 45.3293 50.6823 44.8223 50.6823C45.3293 50.6823 46.4005 50.4498 46.7671 50.0834C47.1337 49.7172 47.3664 48.6463 47.3664 48.1394Z" fill="white"/>
<path d="M48.5323 17.5721C47.1501 19.8425 34.1227 19.7959 31.8438 17.0667" stroke="#1FC1BF" stroke-width="0.697924" stroke-miterlimit="1.5" stroke-linecap="round" stroke-linejoin="round"/>
<path d="M31.3629 15.4523C31.3263 15.4935 31.3061 15.5467 31.3061 15.6018V45.028C31.3061 45.1523 31.4069 45.2531 31.5312 45.2531H31.7115C31.8358 45.2531 31.9366 45.1523 31.9366 45.028V15.6018C31.9366 15.5467 31.9164 15.4935 31.8799 15.4523L31.7897 15.3508C31.747 15.3027 31.6857 15.2751 31.6214 15.2751C31.557 15.2751 31.4957 15.3027 31.453 15.3508L31.3629 15.4523Z" fill="#1FC1BF" stroke="#1FC1BF" stroke-width="0.450274" stroke-linejoin="round"/>
<path d="M33.5743 37.1506H29.6719V37.9579H33.5743V37.1506Z" fill="#1FC1BF"/>
<path d="M35.4375 36.2786H27.8027V36.6496H35.4375V36.2786Z" fill="#1FC1BF"/>
<path opacity="0.5" d="M47.1889 17.996L46.8633 17.8523L46.7104 18.1896L47.036 18.3333L47.1889 17.996Z" fill="white"/>
<path d="M59.5101 32.124L59.2832 32.0239L59.1767 32.2589L59.4035 32.359L59.5101 32.124Z" fill="white"/>
<path opacity="0.5" d="M5.72578 42.9019L5.48633 42.9124L5.49991 43.1942L5.73936 43.1837L5.72578 42.9019Z" fill="white"/>
<path d="M9.65839 46.1716L9.56055 46.0791L9.45187 46.194L9.54971 46.2865L9.65839 46.1716Z" fill="white"/>
<path opacity="0.5" d="M51.8928 22.2871C52.0623 22.2871 52.1997 22.1497 52.1997 21.9802C52.1997 21.8107 52.0623 21.6733 51.8928 21.6733C51.7233 21.6733 51.5859 21.8107 51.5859 21.9802C51.5859 22.1497 51.7233 22.2871 51.8928 22.2871Z" stroke="white" stroke-width="0.664022" stroke-miterlimit="1.5" stroke-linejoin="round"/>
<path d="M7.01071 44.8144C7.15039 44.8144 7.26361 44.7012 7.26361 44.5615C7.26361 44.4218 7.15039 44.3086 7.01071 44.3086C6.87104 44.3086 6.75781 44.4218 6.75781 44.5615C6.75781 44.7012 6.87104 44.8144 7.01071 44.8144Z" stroke="white" stroke-width="0.580536" stroke-miterlimit="1.5" stroke-linejoin="round"/>
<path d="M12.8796 46.769C12.9199 46.769 12.9526 46.7363 12.9526 46.696C12.9526 46.6557 12.9199 46.623 12.8796 46.623C12.8393 46.623 12.8066 46.6557 12.8066 46.696C12.8066 46.7363 12.8393 46.769 12.8796 46.769Z" fill="white"/>
<path opacity="0.5" d="M10.8935 26.8173C11.0332 26.8173 11.1464 26.7041 11.1464 26.5644C11.1464 26.4248 11.0332 26.3115 10.8935 26.3115C10.7539 26.3115 10.6406 26.4248 10.6406 26.5644C10.6406 26.7041 10.7539 26.8173 10.8935 26.8173Z" stroke="white" stroke-width="0.580536" stroke-miterlimit="1.5" stroke-linejoin="round"/>
<path opacity="0.5" d="M4.36328 41.9692C4.40427 41.9692 4.43749 41.936 4.43749 41.895C4.43749 41.854 4.40427 41.8208 4.36328 41.8208C4.32229 41.8208 4.28906 41.854 4.28906 41.895C4.28906 41.936 4.32229 41.9692 4.36328 41.9692Z" fill="white"/>
<path d="M38.2344 32.7436L48.7209 17.2593" stroke="#1FC1BF" stroke-width="0.697924" stroke-miterlimit="1.5" stroke-linecap="round" stroke-linejoin="round"/>
<path d="M56.6707 29.3571L48.9316 17.4495" stroke="#1FC1BF" stroke-width="0.698667" stroke-miterlimit="1.5" stroke-linejoin="round"/>
<path d="M25.7739 43.7527L15.498 26.1821" stroke="#1FC1BF" stroke-width="0.697924" stroke-miterlimit="1.5" stroke-linecap="round" stroke-linejoin="round"/>
<path d="M15.4977 26.3829C15.6087 26.3829 15.6986 26.293 15.6986 26.1821C15.6986 26.0711 15.6087 25.9812 15.4977 25.9812C15.3868 25.9812 15.2969 26.0711 15.2969 26.1821C15.2969 26.293 15.3868 26.3829 15.4977 26.3829Z" fill="white" stroke="#C4DBD9" stroke-width="0.829394" stroke-miterlimit="1.5" stroke-linecap="round" stroke-linejoin="round"/>
<path d="M7.34375 39.5783L13.8274 28.9275" stroke="#1FC1BF" stroke-width="0.697924" stroke-miterlimit="1.5" stroke-linejoin="round"/>
<path opacity="0.5" d="M14.043 35.3767V39.7659" stroke="white" stroke-width="1.6562" stroke-miterlimit="1.5" stroke-linecap="round" stroke-linejoin="round"/>
<path d="M10.7109 27.6274V28.9647" stroke="white" stroke-width="1.06667" stroke-miterlimit="1.5" stroke-linecap="round" stroke-linejoin="round"/>
<path opacity="0.5" d="M16.2969 38.3945V40.8971" stroke="white" stroke-width="1.19029" stroke-miterlimit="1.5" stroke-linecap="round" stroke-linejoin="round"/>
<path opacity="0.5" d="M58.5469 37.1191V37.7574" stroke="white" stroke-width="0.747681" stroke-miterlimit="1.5" stroke-linecap="round" stroke-linejoin="round"/>
<path d="M48.7431 17.3817C48.8773 17.3817 48.9861 17.2728 48.9861 17.1386C48.9861 17.0043 48.8773 16.8955 48.7431 16.8955C48.6088 16.8955 48.5 17.0043 48.5 17.1386C48.5 17.2728 48.6088 17.3817 48.7431 17.3817Z" fill="white" stroke="#00FFE8" stroke-width="0.551951" stroke-miterlimit="1.5" stroke-linecap="round" stroke-linejoin="round"/>
<path d="M31.6211 16.5686C32.127 16.5686 32.5371 16.1585 32.5371 15.6526C32.5371 15.1467 32.127 14.7366 31.6211 14.7366C31.1152 14.7366 30.7051 15.1467 30.7051 15.6526C30.7051 16.1585 31.1152 16.5686 31.6211 16.5686Z" stroke="white" stroke-width="0.697924" stroke-miterlimit="1.5" stroke-linecap="round" stroke-linejoin="round"/>
<path d="M31.6202 16.2998C31.9779 16.2998 32.2678 16.0099 32.2678 15.6522C32.2678 15.2946 31.9779 15.0046 31.6202 15.0046C31.2626 15.0046 30.9727 15.2946 30.9727 15.6522C30.9727 16.0099 31.2626 16.2998 31.6202 16.2998Z" stroke="white" stroke-width="0.697924" stroke-miterlimit="1.5" stroke-linecap="round" stroke-linejoin="round"/>
<path fill-rule="evenodd" clip-rule="evenodd" d="M21.1022 22.3347C20.9908 22.7144 20.9264 23.5643 21.1141 23.9134C21.3028 24.2629 22.0381 24.6565 22.4104 24.7603C22.0381 24.6565 21.2006 24.6113 20.851 24.8107C20.5023 25.0103 20.0962 25.7647 19.9848 26.1444C20.0962 25.7647 20.1606 24.915 19.9719 24.5655C19.7833 24.216 19.0479 23.8224 18.6757 23.7186C19.0479 23.8224 19.8855 23.8676 20.2351 23.6682C20.5847 23.469 20.9908 22.7144 21.1022 22.3347Z" fill="white"/>
<path fill-rule="evenodd" clip-rule="evenodd" d="M58.6805 32.1418C58.6474 32.2547 58.6282 32.5074 58.684 32.6113C58.7401 32.7152 58.9588 32.8322 59.0695 32.8631C58.9588 32.8322 58.7097 32.8188 58.6058 32.8781C58.5021 32.9375 58.3813 33.1618 58.3482 33.2748C58.3813 33.1618 58.4005 32.9091 58.3443 32.8052C58.2882 32.7012 58.0696 32.5842 57.9589 32.5533C58.0696 32.5842 58.3186 32.5976 58.4226 32.5383C58.5266 32.4791 58.6474 32.2547 58.6805 32.1418Z" fill="white"/>
<path opacity="0.5" d="M16.838 35.326L16.4395 34.8152L15.8578 35.1608L16.2564 35.6716L16.838 35.326Z" fill="white"/>
<path fill-rule="evenodd" clip-rule="evenodd" d="M31.2704 44.6381C31.3019 44.4692 31.4468 44.3477 31.6231 44.3477C31.7932 44.3477 31.9381 44.4692 31.9759 44.6381C32.4358 47.0425 33.3366 49.7607 34.5209 50.9488C35.7871 52.2131 38.7856 53.1485 41.2927 53.5826C41.3557 53.5927 41.4061 53.655 41.3998 53.7243C41.3998 53.7942 41.3431 53.8484 41.2675 53.8484C36.4296 53.8509 26.8105 53.8509 21.9726 53.8509C21.9033 53.8509 21.8403 53.7961 21.834 53.7249C21.834 53.6537 21.8843 53.5907 21.9536 53.58C24.4608 53.1485 27.453 52.2131 28.7191 50.9488C29.9097 49.7607 30.8043 47.0425 31.2704 44.6381Z" fill="url(#paint2_linear_8940_152214)"/>
<path fill-rule="evenodd" clip-rule="evenodd" d="M57.5891 1.94778L37.9199 22.2913L51.1087 -5.78126C51.1153 -4.12127 50.6274 3.77655 57.5891 1.94778Z" fill="url(#paint3_linear_8940_152214)"/>
<path fill-rule="evenodd" clip-rule="evenodd" d="M13.8885 -7.99992L21.6719 19.2058L3.95476 -6.25229C5.39566 -5.42802 11.9914 -1.05653 13.8885 -7.99992Z" fill="url(#paint4_linear_8940_152214)"/>
<path fill-rule="evenodd" clip-rule="evenodd" d="M56.5316 64.6641L40.4941 41.3503L65.3926 59.8457C63.7643 59.5229 56.1202 57.478 56.5316 64.6641Z" fill="url(#paint5_linear_8940_152214)"/>
<g style="mix-blend-mode:hue">
<rect width="64" height="64" fill="#8668AD"/>
</g>
</g>
</g>
<defs>
<linearGradient id="paint0_linear_8940_152214" x1="48.7297" y1="36.3016" x2="48.6069" y2="28.3195" gradientUnits="userSpaceOnUse">
<stop stop-color="#A3F5F1"/>
<stop offset="1" stop-color="#1FC1BF"/>
</linearGradient>
<linearGradient id="paint1_linear_8940_152214" x1="15.4675" y1="47.764" x2="15.1733" y2="39.3293" gradientUnits="userSpaceOnUse">
<stop stop-color="#A3F5F1"/>
<stop offset="1" stop-color="#1FC1BF"/>
</linearGradient>
<linearGradient id="paint2_linear_8940_152214" x1="31.5102" y1="43.4619" x2="31.6622" y2="54.5561" gradientUnits="userSpaceOnUse">
<stop stop-color="#A3F5F1"/>
<stop offset="1" stop-color="#1FC1BF"/>
</linearGradient>
<linearGradient id="paint3_linear_8940_152214" x1="54.121" y1="-1.23907" x2="37.4888" y2="19.1858" gradientUnits="userSpaceOnUse">
<stop stop-color="white" stop-opacity="0"/>
<stop offset="1" stop-color="white"/>
</linearGradient>
<linearGradient id="paint4_linear_8940_152214" x1="9.39454" y1="-6.58988" x2="18.7669" y2="18.0264" gradientUnits="userSpaceOnUse">
<stop stop-color="white" stop-opacity="0"/>
<stop offset="1" stop-color="white"/>
</linearGradient>
<linearGradient id="paint5_linear_8940_152214" x1="60.3431" y1="61.8971" x2="43.6234" y2="41.5438" gradientUnits="userSpaceOnUse">
<stop stop-color="white" stop-opacity="0"/>
<stop offset="1" stop-color="white"/>
</linearGradient>
<clipPath id="clip0_8940_152214">
<path d="M0 6.67826C0 2.98996 2.98996 0 6.67826 0H57.3217C61.01 0 64 2.98996 64 6.67826V57.3217C64 61.01 61.01 64 57.3217 64H6.67826C2.98996 64 0 61.01 0 57.3217V6.67826Z" fill="white"/>
</clipPath>
<clipPath id="clip1_8940_152214">
<path d="M0 6.67826C0 2.98996 2.98996 0 6.67826 0H57.3217C61.01 0 64 2.98996 64 6.67826V57.3217C64 61.01 61.01 64 57.3217 64H6.67826C2.98996 64 0 61.01 0 57.3217V6.67826Z" fill="white"/>
</clipPath>
</defs>
</svg>
