<svg width="64" height="64" viewBox="0 0 64 64" fill="none" xmlns="http://www.w3.org/2000/svg">
<g clip-path="url(#clip0_8940_152436)">
<path d="M0 6.67826C0 2.98996 2.98996 0 6.67826 0H57.3217C61.01 0 64 2.98996 64 6.67826V57.3217C64 61.01 61.01 64 57.3217 64H6.67826C2.98996 64 0 61.01 0 57.3217V6.67826Z" fill="#D6E4FF"/>
<circle opacity="0.64" cx="15.469" cy="13.8665" r="1.06667" fill="#FAFBFF"/>
<circle cx="8.53555" cy="20.2665" r="1.6" fill="#FAFBFF"/>
<circle opacity="0.24" cx="61.8689" cy="58.1333" r="14.9333" fill="#FAFBFF"/>
<path opacity="0.52" d="M7.14532 53.1813L7.01443 52.7844C8.83662 52.1773 9.81364 50.2101 9.20654 48.3879L9.60344 48.257C10.2105 50.0792 12.1777 51.0562 13.9999 50.4491L14.1308 50.846C12.3086 51.4531 11.3316 53.4203 11.9387 55.2425L11.5418 55.3734C10.9347 53.5512 8.96751 52.5742 7.14532 53.1813Z" fill="white"/>
<path opacity="0.51" d="M50.9375 55.5635L50.9565 55.394C51.7358 55.4788 52.433 54.9153 52.5178 54.136L52.6874 54.155C52.6025 54.9343 53.166 55.6315 53.9453 55.7164L53.9263 55.8859C53.147 55.801 52.4498 56.3645 52.365 57.1439L52.1955 57.1249C52.2803 56.3456 51.7168 55.6484 50.9375 55.5635Z" fill="white"/>
<circle opacity="0.24" cx="-2.66523" cy="22.9332" r="11.2" fill="#FAFBFF"/>
<path fill-rule="evenodd" clip-rule="evenodd" d="M12.4233 -1.78725C11.7166 -1.25687 10.4665 0.188712 10.3396 1.08275C10.2121 1.97725 11.0082 3.7139 11.5386 4.42057C11.0082 3.7139 9.56312 2.46436 8.66862 2.33688C7.77473 2.20895 6.03747 3.00552 5.3308 3.5359C6.03747 3.00552 7.28764 1.55996 7.41496 0.666532C7.54244 -0.227969 6.74585 -1.96525 6.21547 -2.67192C6.74585 -1.96525 8.19145 -0.715071 9.08595 -0.587596C9.97938 -0.460274 11.7166 -1.25687 12.4233 -1.78725Z" fill="white"/>
<path fill-rule="evenodd" clip-rule="evenodd" d="M52.2673 15.5423C51.8395 15.1145 50.7388 14.4067 50.1204 14.4071C49.5018 14.4071 48.4014 15.1145 47.9736 15.5423C48.4014 15.1145 49.1089 14.0142 49.1089 13.3955C49.1092 12.7772 48.4014 11.6765 47.9736 11.2487C48.4014 11.6765 49.5021 12.3843 50.1201 12.3843C50.7387 12.3843 51.8395 11.6765 52.2673 11.2487C51.8395 11.6765 51.1316 12.7772 51.1316 13.3959C51.1316 14.0138 51.8395 15.1145 52.2673 15.5423Z" fill="white"/>
<path fill-rule="evenodd" clip-rule="evenodd" d="M23.5133 24.1135L22.3008 25.745L24.1195 26.9066L24.7258 25.6275L23.5133 24.1135Z" fill="white" stroke="white" stroke-width="0.218962" stroke-miterlimit="1.5" stroke-linecap="round" stroke-linejoin="round"/>
<path fill-rule="evenodd" clip-rule="evenodd" d="M32.7941 11.7537V52.187L49.1777 45.5618C34.0504 35.0848 34.7932 22.4322 34.7932 14.2295L32.7941 11.7537Z" fill="url(#paint0_linear_8940_152436)"/>
<path fill-rule="evenodd" clip-rule="evenodd" d="M32.7918 11.7535V52.1869L16.4082 45.5617C31.5355 35.0847 30.6376 17.0735 30.6376 8.87085L32.7918 11.7535Z" fill="url(#paint1_linear_8940_152436)"/>
<path fill-rule="evenodd" clip-rule="evenodd" d="M38.1714 46.1787L31.4478 47.0757C24.5123 46.3223 17.5779 45.5548 11.0664 40.5612C11.0664 40.5612 19.8275 38.1103 25.6376 39.9961C31.4478 41.882 38.1714 46.1787 38.1714 46.1787Z" fill="#0E4CAF"/>
<path fill-rule="evenodd" clip-rule="evenodd" d="M14.7873 53.7483C14.6691 53.6094 14.5582 53.4681 14.4548 53.3268C12.8788 50.8995 22.8016 47.5422 33.1361 46.9536C43.3334 46.3744 52.7116 49.1737 51.9203 51.8271C51.909 51.8624 51.8962 51.8977 51.8828 51.933C50.3271 56.2133 42.3662 59.4765 32.7919 59.4765C24.6253 59.4765 17.6323 57.1033 14.7873 53.7483Z" fill="url(#paint2_linear_8940_152436)"/>
<path fill-rule="evenodd" clip-rule="evenodd" d="M14.4568 53.3265C13.7896 52.4092 13.4277 51.4235 13.4277 50.4011C13.4277 45.3918 22.1055 41.3242 32.7941 41.3242C43.4825 41.3242 52.1603 45.3918 52.1603 50.4011C52.1603 50.8854 52.0791 51.3624 51.9225 51.8271C52.7136 49.1733 43.3356 46.3751 33.1381 46.9548C22.8036 47.5418 12.8811 50.9001 14.4568 53.3265Z" fill="url(#paint3_linear_8940_152436)"/>
<path d="M24.7971 12.796C24.7971 13.3089 24.3814 13.7246 23.8685 13.7246C23.3557 13.7246 22.9399 13.3089 22.9399 12.796C22.9399 12.2832 23.3557 11.8674 23.8685 11.8674C24.3814 11.8674 24.7971 12.2832 24.7971 12.796Z" stroke="white" stroke-opacity="0.5" stroke-width="0.227507"/>
<path opacity="0.8" d="M8.4341 56.2754C8.86801 56.2754 9.21976 55.9237 9.21976 55.4898C9.21976 55.0558 8.86801 54.7041 8.4341 54.7041C8.00019 54.7041 7.64844 55.0558 7.64844 55.4898C7.64844 55.9237 8.00019 56.2754 8.4341 56.2754Z" fill="white"/>
<path d="M5.89453 40.9995C5.89453 41.1449 5.7767 41.2627 5.63135 41.2627C5.486 41.2627 5.36818 41.1449 5.36818 40.9995C5.36818 40.8542 5.486 40.7363 5.63135 40.7363C5.7767 40.7363 5.89453 40.8542 5.89453 40.9995Z" fill="white" stroke="white" stroke-width="0.0644782"/>
<path d="M60.4184 56.2803C60.4184 56.5056 60.2358 56.6882 60.0106 56.6882C59.7853 56.6882 59.6027 56.5056 59.6027 56.2803C59.6027 56.0551 59.7853 55.8725 60.0106 55.8725C60.2358 55.8725 60.4184 56.0551 60.4184 56.2803Z" stroke="white" stroke-opacity="0.5" stroke-width="0.0999263"/>
<path opacity="0.5" fill-rule="evenodd" clip-rule="evenodd" d="M13.7357 19.5081L5.8457 21.215L11.9445 28.636" fill="#1FC1BF"/>
<path opacity="0.5" fill-rule="evenodd" clip-rule="evenodd" d="M50.6699 30.9331L58.6699 32.828L52.2699 41.0664" fill="#1FC1BF"/>
<path opacity="0.7" fill-rule="evenodd" clip-rule="evenodd" d="M11.9453 28.636L18.769 20.8312L13.7365 19.5081" fill="#69A0F7"/>
<path opacity="0.7" fill-rule="evenodd" clip-rule="evenodd" d="M52.2695 41.0664L45.8695 32.402L50.6695 30.9331" fill="#69A0F7"/>
<path fill-rule="evenodd" clip-rule="evenodd" d="M36.7721 12.6604C36.772 14.4491 36.8724 16.2317 37.2284 17.9888L36.422 18.1522C36.0551 16.3413 35.9491 14.5039 35.9492 12.6604L36.7721 12.6604Z" fill="white" stroke="white" stroke-width="1.62816" stroke-linecap="square"/>
<path fill-rule="evenodd" clip-rule="evenodd" d="M34.3423 21.417C34.3423 22.7826 34.3637 22.9887 34.6237 24.2718L33.8173 24.4352C33.5419 23.076 33.5195 22.8088 33.5195 21.417L34.3423 21.417Z" fill="#F2FBEB"/>
<path fill-rule="evenodd" clip-rule="evenodd" d="M25.5816 28.9825C25.5817 30.5564 25.5567 30.7939 25.2529 32.2727L26.1951 32.461C26.5169 30.8945 26.5431 30.5865 26.543 28.9824L25.5816 28.9825Z" fill="#F2FBEB"/>
<path fill-rule="evenodd" clip-rule="evenodd" d="M30.5595 23.3118C30.4638 26.6285 30.276 27.1704 29.629 30.3206L31.636 30.7218C32.1488 27.5475 32.3771 26.7287 32.377 23.3118H30.5595Z" fill="white"/>
<path fill-rule="evenodd" clip-rule="evenodd" d="M32.7815 4.79995L31.9086 5.63786L32.5743 6.33125L33.4473 5.49341L32.7815 4.79995Z" fill="white" stroke="white" stroke-width="0.542719" stroke-linecap="square"/>
<path fill-rule="evenodd" clip-rule="evenodd" d="M34.0719 8.01812L34.0719 9.22805H35.0331L35.0332 8.01807L34.0719 8.01812Z" fill="white" stroke="white" stroke-width="1.62816" stroke-linecap="square"/>
<path d="M61.5771 53.041L61.291 53.2151L61.4651 53.5012L61.7512 53.3271L61.5771 53.041Z" fill="white"/>
<path opacity="0.8" fill-rule="evenodd" clip-rule="evenodd" d="M56.3004 51.1125C56.4687 51.2967 56.9073 51.6072 57.1625 51.6197C57.4178 51.6321 57.8831 51.3602 58.0672 51.1921C57.8831 51.3602 57.5718 51.8007 57.5594 52.0543C57.5487 52.3096 57.8182 52.7745 57.9865 52.9588C57.8182 52.7745 57.3797 52.4639 57.1245 52.4515C56.8708 52.4408 56.4039 52.711 56.22 52.8789C56.4039 52.711 56.7168 52.2722 56.7275 52.0169C56.7383 51.7616 56.4687 51.2967 56.3004 51.1125Z" fill="white"/>
<path d="M25.1251 18.9986C25.1138 18.9087 25.0927 18.816 25.0541 18.7344C25.0154 18.6527 24.957 18.5775 24.8946 18.5117C24.9846 18.5004 25.0774 18.4793 25.1591 18.4406C25.2407 18.402 25.3157 18.3436 25.3815 18.2813C25.3928 18.3712 25.4139 18.4639 25.4526 18.5455L25.1251 18.9986Z" fill="white" stroke="white" stroke-width="0.465876"/>
<path fill-rule="evenodd" clip-rule="evenodd" d="M37.0922 34.4501C37.0009 34.7055 36.9252 35.2872 37.044 35.5377C37.1626 35.7884 37.6603 36.0985 37.9157 36.1898C37.6603 36.0985 37.0788 36.0229 36.8281 36.1416C36.5775 36.26 36.2673 36.758 36.176 37.0134C36.2673 36.758 36.343 36.1762 36.2244 35.9258C36.1058 35.6751 35.6078 35.3649 35.3524 35.2736C35.6078 35.3649 36.1896 35.4406 36.4403 35.3219C36.6907 35.2034 37.0009 34.7055 37.0922 34.4501Z" fill="#F2FBEB"/>
<path fill-rule="evenodd" clip-rule="evenodd" d="M11.0664 40.5612C16.8803 37.8937 34.5129 35.2685 49.1593 43.4029C49.5235 43.6054 49.8439 43.8973 50.2449 44.314C50.6456 44.7284 51.0416 45.4559 51.2125 45.7832C52.8931 48.9922 52.8234 49.2111 52.4578 51.177C52.1093 48.5707 45.5465 45.1098 32.5776 45.5854C24.3858 39.3369 18.3817 40.5612 11.0664 40.5612Z" fill="url(#paint4_linear_8940_152436)"/>
<path d="M27.691 -1.06665C41.7638 1.42561 58.8804 7.61287 57.5267 17.5299C55.1055 35.2724 2.09049 26.3452 -1.06445 45.8667" stroke="white" stroke-opacity="0.8" stroke-width="0.533333" stroke-linecap="round"/>
<g style="mix-blend-mode:hue">
<rect width="64" height="64" fill="#D6E4FF"/>
</g>
</g>
<defs>
<linearGradient id="paint0_linear_8940_152436" x1="40.9859" y1="11.7537" x2="40.9859" y2="41.1575" gradientUnits="userSpaceOnUse">
<stop stop-color="#FAFBFF"/>
<stop offset="1" stop-color="#AAC9FD"/>
</linearGradient>
<linearGradient id="paint1_linear_8940_152436" x1="22.076" y1="75.5259" x2="54.9729" y2="56.8501" gradientUnits="userSpaceOnUse">
<stop offset="0.690949" stop-color="#D6E4FF"/>
<stop offset="0.878762" stop-color="#FAFBFF"/>
</linearGradient>
<linearGradient id="paint2_linear_8940_152436" x1="33.128" y1="46.8767" x2="33.128" y2="59.8431" gradientUnits="userSpaceOnUse">
<stop stop-color="#68DFDC"/>
<stop offset="1" stop-color="#3374DB"/>
</linearGradient>
<linearGradient id="paint3_linear_8940_152436" x1="13.4277" y1="47.3253" x2="33.2721" y2="41.3242" gradientUnits="userSpaceOnUse">
<stop stop-color="#68DFDC"/>
<stop offset="1" stop-color="#69A0F7"/>
</linearGradient>
<linearGradient id="paint4_linear_8940_152436" x1="25.4593" y1="58.3141" x2="30.2156" y2="35.8918" gradientUnits="userSpaceOnUse">
<stop offset="0.690949" stop-color="#D6E4FF"/>
<stop offset="0.878762" stop-color="white"/>
</linearGradient>
<clipPath id="clip0_8940_152436">
<path d="M0 6.67826C0 2.98996 2.98996 0 6.67826 0H57.3217C61.01 0 64 2.98996 64 6.67826V57.3217C64 61.01 61.01 64 57.3217 64H6.67826C2.98996 64 0 61.01 0 57.3217V6.67826Z" fill="white"/>
</clipPath>
</defs>
</svg>
